<?xml version="1.0" encoding="UTF-8" standalone="no"?>
<svg width="1440px" height="942px" viewBox="0 0 1440 942" version="1.1" xmlns="http://www.w3.org/2000/svg" xmlns:xlink="http://www.w3.org/1999/xlink">
    <!-- Generator: Sketch 3.8.2 (29753) - http://www.bohemiancoding.com/sketch -->
    <title>Group 9</title>
    <desc>Created with Sketch.</desc>
    <defs></defs>
    <g id="Web" stroke="none" stroke-width="1" fill="none" fill-rule="evenodd">
        <g id="MVP">
            <g id="Group-9" transform="translate(0.000000, -65.000000)">
                <rect id="Rectangle-26" fill="#FFFFFF" x="0" y="65" width="1440" height="942"></rect>
                <g id="Page-1" transform="translate(223.746134, 167.373067) rotate(-30.000000) translate(-223.746134, -167.373067) translate(139.746134, 125.373067)">
                    <path d="M82.5,84 L82.5,84 C78.078,84 74.211,81.0239982 73.08,76.749 L56.553,14.301 C55.224,6.846 60.954,2.84217094e-13 68.526,2.84217094e-13 L96.474,2.84217094e-13 C104.046,2.84217094e-13 109.776,6.846 108.447,14.301 L91.92,76.749 C90.789,81.0239982 86.922,84 82.5,84" id="Fill-1" fill="#EEAF4B"></path>
                    <path d="M139.131,16.824 C129.18,9.597 115.536,5.532 107.31,6.675 C108.459,8.934 108.933,11.574 108.447,14.301 L91.92,76.749 C91.659,77.727 91.242,78.624 90.723,79.446 C92.085,80.268003 93.654,80.832 95.367,80.967 C109.659,85.5720006 132.045,56.711997 143.505,40.113 C149.385,31.599 147.501,22.902 139.131,16.824" id="Fill-3" fill="#F4C44E"></path>
                    <path d="M73.08,76.749 L56.553,14.301 C56.061,11.547 56.544,8.883 57.717,6.612 C49.449,5.655 36.078,9.714 26.292,16.824 C17.922,22.902 16.038,31.599 21.918,40.113 C33.378,56.711997 55.764,85.5720006 70.056,80.967 C71.637,80.844 73.092,80.352 74.382,79.638 C73.806,78.768003 73.359,77.799003 73.08,76.749" id="Fill-4" fill="#F4C44E"></path>
                    <path d="M21.918,40.113 C20.784,38.475 19.947,36.831 19.383,35.199 C11.316,43.29 4.98,52.863 1.026,63.474003 C-3.231,74.888997 6.453,86.6669997 17.397,83.4660015 L50.694,73.725003 C39.912,64.847997 28.893,50.214 21.918,40.113" id="Fill-5" fill="#F1B501"></path>
                    <path d="M166.974,63.474003 C162.69,51.984 155.634,41.688 146.583,33.204 C146.103,35.484 145.101,37.803 143.505,40.113 C136.677,50.004 125.97,64.245003 115.407,73.167 L150.603,83.4660015 C161.547,86.6669997 171.231,74.888997 166.974,63.474003" id="Fill-6" fill="#F1B501"></path>
                    <path d="M68.526,2.84217094e-13 C68.403,2.84217094e-13 68.289,0.036 68.163,0.042 L73.08,18.624 C74.211,22.899 78.078,25.875 82.5,25.875 C86.922,25.875 90.789,22.899 91.92,18.624 L96.837,0.042 C96.711,0.036 96.597,2.84217094e-13 96.474,2.84217094e-13 L68.526,2.84217094e-13" id="Fill-7" fill="#F4C44E"></path>
                </g>
                <g id="Page-1-Copy" transform="translate(1261.955104, 774.955104) rotate(-225.000000) translate(-1261.955104, -774.955104) translate(1158.455104, 722.955104)">
                    <path d="M101.640753,103.488767 L101.640753,103.488767 C96.1928091,103.488767 91.4286298,99.8223058 90.0352274,94.5554689 L69.6738125,17.6189626 C68.0364724,8.43433452 75.0958847,-2.99138492e-12 84.4246578,-2.99138492e-12 L118.856849,-2.99138492e-12 C128.185622,-2.99138492e-12 135.245035,8.43433452 133.607694,17.6189626 L113.246279,94.5554689 C111.852877,99.8223058 107.088698,103.488767 101.640753,103.488767" id="Fill-1" fill="#EEAF4B"></path>
                    <path d="M171.410663,20.7273217 C159.15094,11.8235916 142.341407,6.81547452 132.2069,8.22366096 C133.622479,11.0067696 134.206451,14.2592737 133.607694,17.6189626 L113.246279,94.5554689 C112.924725,95.7603739 112.410977,96.8654861 111.771565,97.8781976 C113.449561,98.8909128 115.382583,99.5857622 117.493015,99.7520835 C135.100889,105.425486 162.680646,69.8696982 176.799471,49.4195823 C184.043684,38.9302566 181.722579,28.2154732 171.410663,20.7273217" id="Fill-3" fill="#F4C44E"></path>
                    <path d="M90.0352274,94.5554689 L69.6738125,17.6189626 C69.067664,14.2260095 69.6627244,10.9439371 71.1078711,8.14604439 C60.9216196,6.96701165 44.4484255,11.9677367 32.3919841,20.7273217 C22.0800677,28.2154732 19.7589625,38.9302566 27.0031762,49.4195823 C41.1220008,69.8696982 68.7017573,105.425486 86.3096318,99.7520835 C88.2574382,99.6005463 90.0500115,98.9943978 91.6393033,98.1147433 C90.9296661,97.0428991 90.378958,95.8490822 90.0352274,94.5554689" id="Fill-4" fill="#F4C44E"></path>
                    <path d="M27.0031762,49.4195823 C25.6060778,47.4015514 24.5748862,45.3761284 23.880033,43.3654895 C13.9414153,53.3336754 6.13540548,65.1276988 1.26404137,78.2005514 C-3.98062151,92.2639283 7.95015493,106.774535 21.4332629,102.830876 L62.455471,90.829877 C49.1719485,79.8933246 35.5964399,61.8641066 27.0031762,49.4195823" id="Fill-5" fill="#F1B501"></path>
                    <path d="M205.713493,78.2005514 C200.435566,64.0447628 191.742509,51.3599967 180.591595,40.9076312 C180.00023,43.7166121 178.765757,46.5736412 176.799471,49.4195823 C168.387312,61.6053847 155.19619,79.1504304 142.182478,90.1424122 L185.544271,102.830876 C199.027379,106.774535 210.958156,92.2639283 205.713493,78.2005514" id="Fill-6" fill="#F1B501"></path>
                    <path d="M84.4246578,1.41753276e-12 C84.2731207,1.41753276e-12 84.1326717,0.0443523288 83.9774385,0.0517443836 L90.0352274,22.9449381 C91.4286298,28.2117771 96.1928091,31.8782363 101.640753,31.8782363 C107.088698,31.8782363 111.852877,28.2117771 113.246279,22.9449381 L119.304068,0.0517443836 C119.148835,0.0443523288 119.008386,1.41753276e-12 118.856849,1.41753276e-12 L84.4246578,1.41753276e-12" id="Fill-7" fill="#F4C44E"></path>
                </g>
                <g id="Page-1-Copy-2" transform="translate(842.389511, 65.276812) rotate(-345.000000) translate(-842.389511, -65.276812) translate(754.389511, 21.276812)">
                    <path d="M86.4285714,88 L86.4285714,88 C81.796,88 77.7448571,84.8822838 76.56,80.4037143 L59.246,14.982 C57.8537143,7.172 63.8565714,0 71.7891429,0 L101.068,0 C109.000571,0 115.003429,7.172 113.611143,14.982 L96.2971429,80.4037143 C95.1122857,84.8822838 91.0611429,88 86.4285714,88" id="Fill-1" fill="#EEAF4B"></path>
                    <path d="M145.756286,17.6251429 C135.331429,10.054 121.037714,5.79542857 112.42,6.99285714 C113.623714,9.35942857 114.120286,12.1251429 113.611143,14.982 L96.2971429,80.4037143 C96.0237143,81.4282857 95.5868571,82.368 95.0431429,83.2291429 C96.47,84.0902889 98.1137143,84.6811429 99.9082857,84.8225714 C114.880857,89.6468578 138.332857,59.4125683 150.338571,42.0231429 C156.498571,33.1037143 154.524857,23.9925714 145.756286,17.6251429" id="Fill-3" fill="#F4C44E"></path>
                    <path d="M76.56,80.4037143 L59.246,14.982 C58.7305714,12.0968571 59.2365714,9.306 60.4654286,6.92685714 C51.8037143,5.92428571 37.796,10.1765714 27.544,17.6251429 C18.7754286,23.9925714 16.8017143,33.1037143 22.9617143,42.0231429 C34.9674286,59.4125683 58.4194286,89.6468578 73.392,84.8225714 C75.0482857,84.6937143 76.5725714,84.1782857 77.924,83.4302857 C77.3205714,82.5188603 76.8522857,81.5037174 76.56,80.4037143" id="Fill-4" fill="#F4C44E"></path>
                    <path d="M22.9617143,42.0231429 C21.7737143,40.3071429 20.8968571,38.5848571 20.306,36.8751429 C11.8548571,45.3514286 5.21714286,55.3802857 1.07485714,66.4965746 C-3.38485714,78.4551397 6.76028571,90.7939997 18.2254286,87.440573 L53.108,77.2357174 C41.8125714,67.9359969 30.2688571,52.6051429 22.9617143,42.0231429" id="Fill-5" fill="#F1B501"></path>
                    <path d="M174.925143,66.4965746 C170.437143,54.4594286 163.045143,43.6731429 153.563143,34.7851429 C153.060286,37.1737143 152.010571,39.6031429 150.338571,42.0231429 C143.185429,52.3851429 131.968571,67.3042889 120.902571,76.6511429 L157.774571,87.440573 C169.239714,90.7939997 179.384857,78.4551397 174.925143,66.4965746" id="Fill-6" fill="#F1B501"></path>
                </g>
            </g>
        </g>
    </g>
</svg>