<?xml version="1.0" encoding="UTF-8" standalone="no"?>
<svg width="408px" height="438px" viewBox="0 0 408 438" version="1.1" xmlns="http://www.w3.org/2000/svg" xmlns:xlink="http://www.w3.org/1999/xlink">
    <!-- Generator: Sketch 3.8.2 (29753) - http://www.bohemiancoding.com/sketch -->
    <title>Page 1 Copy 3</title>
    <desc>Created with Sketch.</desc>
    <defs></defs>
    <g id="Web" stroke="none" stroke-width="1" fill="none" fill-rule="evenodd">
        <g id="MVP" transform="translate(0.000000, -539.000000)">
            <g id="Page-1-Copy-3" transform="translate(94.558043, 728.107249) rotate(-345.000000) translate(-94.558043, -728.107249) translate(-257.441957, 552.107249)">
                <path d="M345.714286,352 L345.714286,352 C327.184,352 310.979429,339.529135 306.24,321.614857 L236.984,59.928 C231.414857,28.688 255.426286,1.02318154e-12 287.156571,1.02318154e-12 L404.272,1.02318154e-12 C436.002286,1.02318154e-12 460.013714,28.688 454.444571,59.928 L385.188571,321.614857 C380.449143,339.529135 364.244571,352 345.714286,352" id="Fill-1" fill="#EEAF4B"></path>
                <path d="M583.025143,70.5005714 C541.325714,40.216 484.150857,23.1817143 449.68,27.9714286 C454.494857,37.4377143 456.481143,48.5005714 454.444571,59.928 L385.188571,321.614857 C384.094857,325.713143 382.347429,329.472 380.172571,332.916571 C385.88,336.361155 392.454857,338.724571 399.633143,339.290286 C459.523429,358.587431 553.331429,237.650273 601.354286,168.092571 C625.994286,132.414857 618.099429,95.9702857 583.025143,70.5005714" id="Fill-3" fill="#F4C44E"></path>
                <path d="M306.24,321.614857 L236.984,59.928 C234.922286,48.3874286 236.946286,37.224 241.861714,27.7074286 C207.214857,23.6971429 151.184,40.7062857 110.176,70.5005714 C75.1017143,95.9702857 67.2068571,132.414857 91.8468571,168.092571 C139.869714,237.650273 233.677714,358.587431 293.568,339.290286 C300.193143,338.774857 306.290286,336.713143 311.696,333.721143 C309.282286,330.075441 307.409143,326.01487 306.24,321.614857" id="Fill-4" fill="#F4C44E"></path>
                <path d="M699.700571,265.986298 C681.748571,217.837714 652.180571,174.692571 614.252571,139.140571 C612.241143,148.694857 608.042286,158.412571 601.354286,168.092571 C572.741714,209.540571 527.874286,269.217155 483.610286,306.604571 L631.098286,349.762292 C676.958857,363.175999 717.539429,313.820559 699.700571,265.986298" id="Fill-6" fill="#F1B501"></path>
                <path d="M287.156571,1.1937118e-12 C286.641143,1.1937118e-12 286.163429,0.150857143 285.635429,0.176 L306.24,78.0434286 C310.979429,95.9577143 327.184,108.428571 345.714286,108.428571 C364.244571,108.428571 380.449143,95.9577143 385.188571,78.0434286 L405.793143,0.176 C405.265143,0.150857143 404.787429,1.1937118e-12 404.272,1.1937118e-12 L287.156571,1.1937118e-12" id="Fill-7" fill="#F4C44E"></path>
            </g>
        </g>
    </g>
</svg>